<mxfile host="app.diagrams.net" modified="2024-05-08T12:10:31.856Z" agent="Mozilla/5.0 (Windows NT 10.0; Win64; x64) AppleWebKit/537.36 (KHTML, like Gecko) Chrome/124.0.0.0 Safari/537.36" version="24.3.1" etag="dxybO0w4M89UlXw1YnC_" type="github">
  <diagram name="페이지-1" id="AAJ1m3-K66ENpwp4d4mV">
    <mxGraphModel>
      <root>
        <mxCell id="0" />
        <mxCell id="1" parent="0" />
      </root>
    </mxGraphModel>
  </diagram>
</mxfile>
